<svg width="22" height="19" viewBox="0 0 22 19" fill="none" xmlns="http://www.w3.org/2000/svg">
<path d="M11 18.725C10.8833 18.725 10.775 18.7125 10.675 18.6875C10.575 18.6625 10.4833 18.6167 10.4 18.55C9.66667 18.0667 8.8875 17.6875 8.0625 17.4125C7.2375 17.1375 6.38333 17 5.5 17C4.8 17 4.1125 17.0917 3.4375 17.275C2.7625 17.4583 2.11667 17.7167 1.5 18.05C1.15 18.2333 0.8125 18.225 0.4875 18.025C0.1625 17.825 0 17.5333 0 17.15V5.09999C0 4.91666 0.0458334 4.74166 0.1375 4.57499C0.229167 4.40833 0.366667 4.28333 0.55 4.19999C1.31667 3.79999 2.11667 3.49999 2.95 3.29999C3.78333 3.09999 4.63333 2.99999 5.5 2.99999C6.46667 2.99999 7.4125 3.12499 8.3375 3.37499C9.2625 3.62499 10.15 3.99999 11 4.49999V17.15C11.85 16.6 12.7417 16.1875 13.675 15.9125C14.6083 15.6375 15.55 15.5 16.5 15.5C17.1 15.5 17.7542 15.5583 18.4625 15.675C19.1708 15.7917 19.85 16.0333 20.5 16.4V3.77499C20.6667 3.84166 20.8292 3.90833 20.9875 3.97499C21.1458 4.04166 21.3 4.11666 21.45 4.19999C21.6167 4.29999 21.75 4.42916 21.85 4.58749C21.95 4.74583 22 4.91666 22 5.09999V17.15C22 17.5333 21.8375 17.825 21.5125 18.025C21.1875 18.225 20.85 18.2333 20.5 18.05C19.8833 17.7167 19.2375 17.4583 18.5625 17.275C17.8875 17.0917 17.2 17 16.5 17C15.6167 17 14.7625 17.1375 13.9375 17.4125C13.1125 17.6875 12.3333 18.0667 11.6 18.55C11.5167 18.6167 11.425 18.6625 11.325 18.6875C11.225 18.7125 11.1167 18.725 11 18.725ZM13.125 14.275C12.9917 14.375 12.8542 14.3958 12.7125 14.3375C12.5708 14.2792 12.5 14.1667 12.5 14V6.14999C12.5 6.11666 12.5333 6.03333 12.6 5.89999L18.35 0.149992C18.4667 0.0333252 18.6042 0.00415853 18.7625 0.0624919C18.9208 0.120825 19 0.233325 19 0.399992V8.99999C19 9.03333 18.9583 9.12499 18.875 9.27499L13.125 14.275ZM9.5 16.4V5.42499C8.93333 5.10833 8.275 4.87499 7.525 4.72499C6.775 4.57499 6.1 4.49999 5.5 4.49999C4.71667 4.49999 3.9875 4.58333 3.3125 4.74999C2.6375 4.91666 2.03333 5.13333 1.5 5.39999V16.4C2.08333 16.1167 2.7125 15.8958 3.3875 15.7375C4.0625 15.5792 4.775 15.5 5.525 15.5C6.25833 15.5 6.95833 15.5792 7.625 15.7375C8.29167 15.8958 8.91667 16.1167 9.5 16.4Z" fill="url(#paint0_linear_9_121)"/>
<defs>
<linearGradient id="paint0_linear_9_121" x1="-0.0174604" y1="10.1879" x2="21.9833" y2="10.1431" gradientUnits="userSpaceOnUse">
<stop stop-color="#66C9CF"/>
<stop offset="1" stop-color="#61B3C5"/>
</linearGradient>
</defs>
</svg>
