<svg width="20" height="20" viewBox="0 0 20 20" fill="none" xmlns="http://www.w3.org/2000/svg">
<path d="M10.025 20L9 17H2C1.41667 17 0.9375 16.8125 0.5625 16.4375C0.1875 16.0625 0 15.5833 0 15V2C0 1.41667 0.1875 0.9375 0.5625 0.5625C0.9375 0.1875 1.41667 0 2 0H8L8.875 2.975H18C18.5833 2.975 19.0625 3.1625 19.4375 3.5375C19.8125 3.9125 20 4.39167 20 4.975V18C20 18.5833 19.8125 19.0625 19.4375 19.4375C19.0625 19.8125 18.5833 20 18 20H10.025ZM5.175 12.6C6.325 12.6 7.26667 12.225 8 11.475C8.73333 10.725 9.1 9.75833 9.1 8.575V8.1875C9.1 8.07917 9.08333 7.98333 9.05 7.9H5.075V9.425H7.325C7.19167 9.90833 6.9375 10.2833 6.5625 10.55C6.1875 10.8167 5.73333 10.95 5.2 10.95C4.55 10.95 3.99167 10.7125 3.525 10.2375C3.05833 9.7625 2.825 9.18333 2.825 8.5C2.825 7.81667 3.05833 7.2375 3.525 6.7625C3.99167 6.2875 4.55 6.05 5.2 6.05C5.5 6.05 5.77917 6.10417 6.0375 6.2125C6.29583 6.32083 6.53333 6.48333 6.75 6.7L7.975 5.55C7.64167 5.18333 7.225 4.9 6.725 4.7C6.225 4.5 5.70833 4.4 5.175 4.4C4.04167 4.4 3.07917 4.8 2.2875 5.6C1.49583 6.4 1.1 7.36667 1.1 8.5C1.1 9.63333 1.49583 10.6 2.2875 11.4C3.07917 12.2 4.04167 12.6 5.175 12.6ZM11.85 13.075L12.425 12.55C12.1917 12.2667 11.975 11.9958 11.775 11.7375C11.575 11.4792 11.3833 11.2 11.2 10.9L11.85 13.075ZM13.1 11.8C13.5833 11.25 13.9458 10.725 14.1875 10.225C14.4292 9.725 14.5917 9.33333 14.675 9.05H10.7L10.975 10.125H11.975C12.1083 10.375 12.2667 10.6417 12.45 10.925C12.6333 11.2083 12.85 11.5 13.1 11.8ZM11.025 19H18C18.2833 19 18.5208 18.9042 18.7125 18.7125C18.9042 18.5208 19 18.2833 19 18V4.975C19 4.69167 18.9042 4.45417 18.7125 4.2625C18.5208 4.07083 18.2833 3.975 18 3.975H9.2L10.35 8.05H12.325V6.975H13.35V8.05H17.025V9.05H15.725C15.575 9.68333 15.3333 10.3 15 10.9C14.6667 11.5 14.275 12.0583 13.825 12.575L16.55 15.275L15.825 16L13.1 13.3L12.2 14.2L13.025 17L11.025 19Z" fill="url(#paint0_linear_9_130)"/>
<defs>
<linearGradient id="paint0_linear_9_130" x1="-0.0158731" y1="10.8654" x2="19.9848" y2="10.8308" gradientUnits="userSpaceOnUse">
<stop stop-color="#66C9CF"/>
<stop offset="1" stop-color="#61B3C5"/>
</linearGradient>
</defs>
</svg>
