<svg width="296" height="32" viewBox="0 0 296 32" fill="none" xmlns="http://www.w3.org/2000/svg">
<path d="M9.48 3.32C13.08 3.32 15.8667 4.06667 17.84 5.56C19.84 7.05333 20.84 9.28 20.84 12.24C20.84 15.3333 19.8533 17.6667 17.88 19.24C15.9067 20.7867 13.2667 21.56 9.96 21.56H6.8V31H0.92V3.32H9.48ZM9.48 17.24C11.1867 17.24 12.4933 16.8533 13.4 16.08C14.3067 15.3067 14.76 14.0267 14.76 12.24C14.76 9.12 12.9733 7.56 9.4 7.56H6.8V17.24H9.48ZM41.2981 19.92C41.2981 20.1867 41.2581 20.92 41.1781 22.12H27.9381C28.1248 24.04 28.6448 25.4 29.4981 26.2C30.3515 27 31.5115 27.4 32.9781 27.4C33.8848 27.4 34.7381 27.2533 35.5381 26.96C36.3381 26.6667 37.2048 26.2 38.1381 25.56L40.4981 28.76C38.1248 30.68 35.4448 31.64 32.4581 31.64C29.1248 31.64 26.5648 30.64 24.7781 28.64C22.9915 26.64 22.0981 23.9333 22.0981 20.52C22.0981 18.36 22.4715 16.4267 23.2181 14.72C23.9915 12.9867 25.0981 11.6267 26.5381 10.64C28.0048 9.65333 29.7381 9.16 31.7381 9.16C34.7515 9.16 37.0981 10.1067 38.7781 12C40.4581 13.8933 41.2981 16.5333 41.2981 19.92ZM35.6581 18.32C35.6581 14.8 34.3915 13.04 31.8581 13.04C30.6848 13.04 29.7648 13.48 29.0981 14.36C28.4581 15.2133 28.0715 16.6133 27.9381 18.56H35.6581V18.32ZM63.7694 1.36V31H58.7694L58.4494 28.4C56.956 30.56 54.9294 31.64 52.3694 31.64C49.756 31.64 47.756 30.64 46.3694 28.64C45.0094 26.6133 44.3294 23.8667 44.3294 20.4C44.3294 18.2133 44.676 16.28 45.3694 14.6C46.0894 12.8933 47.1027 11.56 48.4094 10.6C49.716 9.64 51.2227 9.16 52.9294 9.16C54.9027 9.16 56.6227 9.86667 58.0894 11.28V0.719999L63.7694 1.36ZM54.0494 27.4C54.876 27.4 55.6094 27.2 56.2494 26.8C56.8894 26.3733 57.5027 25.72 58.0894 24.84V15.36C57.5294 14.6933 56.956 14.2 56.3694 13.88C55.8094 13.5333 55.156 13.36 54.4094 13.36C53.1027 13.36 52.076 13.9333 51.3294 15.08C50.6094 16.2267 50.2494 18 50.2494 20.4C50.2494 22.9333 50.5694 24.7333 51.2094 25.8C51.876 26.8667 52.8227 27.4 54.0494 27.4ZM80.3147 9.2C80.9547 9.2 81.6614 9.30667 82.4347 9.52L81.4747 15C80.728 14.8133 80.1014 14.72 79.5947 14.72C78.3414 14.72 77.368 15.16 76.6747 16.04C75.9814 16.92 75.4347 18.2533 75.0347 20.04V31H69.3547V9.8H74.2747L74.7947 13.92C75.3014 12.4267 76.0347 11.2667 76.9947 10.44C77.9814 9.61333 79.088 9.2 80.3147 9.2ZM92.9622 9.16C96.1355 9.16 98.6155 10.16 100.402 12.16C102.189 14.1333 103.082 16.88 103.082 20.4C103.082 22.64 102.669 24.6133 101.842 26.32C101.042 28 99.8689 29.3067 98.3222 30.24C96.8022 31.1733 95.0022 31.64 92.9222 31.64C89.7489 31.64 87.2555 30.6533 85.4422 28.68C83.6555 26.68 82.7622 23.92 82.7622 20.4C82.7622 18.16 83.1622 16.2 83.9622 14.52C84.7889 12.8133 85.9622 11.4933 87.4822 10.56C89.0289 9.62667 90.8555 9.16 92.9622 9.16ZM92.9622 13.4C91.5222 13.4 90.4422 13.9733 89.7222 15.12C89.0289 16.24 88.6822 18 88.6822 20.4C88.6822 22.8 89.0289 24.5733 89.7222 25.72C90.4422 26.84 91.5089 27.4 92.9222 27.4C94.3355 27.4 95.3889 26.84 96.0822 25.72C96.8022 24.5733 97.1622 22.8 97.1622 20.4C97.1622 18 96.8155 16.24 96.1222 15.12C95.4289 13.9733 94.3755 13.4 92.9622 13.4ZM125.727 2.68C127.727 2.68 129.461 2.97333 130.927 3.56C132.421 4.12 133.794 4.98667 135.047 6.16L132.247 9.4C131.261 8.6 130.274 8.01333 129.287 7.64C128.301 7.26666 127.247 7.08 126.127 7.08C124.901 7.08 123.914 7.34667 123.167 7.88C122.447 8.38667 122.087 9.12 122.087 10.08C122.087 10.7467 122.234 11.2933 122.527 11.72C122.847 12.1467 123.394 12.5467 124.167 12.92C124.941 13.2933 126.101 13.72 127.647 14.2C130.394 15.08 132.447 16.1733 133.807 17.48C135.167 18.76 135.847 20.6 135.847 23C135.847 24.7067 135.421 26.2133 134.567 27.52C133.714 28.8 132.474 29.8133 130.847 30.56C129.221 31.28 127.314 31.64 125.127 31.64C122.941 31.64 120.994 31.2933 119.287 30.6C117.581 29.9067 116.114 28.96 114.887 27.76L117.887 24.44C118.954 25.3467 120.061 26.04 121.207 26.52C122.354 26.9733 123.607 27.2 124.967 27.2C126.407 27.2 127.554 26.8667 128.407 26.2C129.287 25.5333 129.727 24.6 129.727 23.4C129.727 22.6533 129.567 22.04 129.247 21.56C128.954 21.0533 128.434 20.6 127.687 20.2C126.941 19.8 125.861 19.3867 124.447 18.96C121.434 18.0267 119.274 16.9067 117.967 15.6C116.687 14.2933 116.047 12.5867 116.047 10.48C116.047 8.93333 116.461 7.57333 117.287 6.4C118.114 5.2 119.261 4.28 120.727 3.64C122.194 3 123.861 2.68 125.727 2.68ZM155.984 25.12C155.984 25.9467 156.104 26.56 156.344 26.96C156.584 27.3333 156.984 27.6133 157.544 27.8L156.344 31.56C155.091 31.4533 154.064 31.16 153.264 30.68C152.491 30.2 151.891 29.4533 151.464 28.44C150.078 30.5733 147.958 31.64 145.104 31.64C142.998 31.64 141.318 31.04 140.064 29.84C138.838 28.6133 138.224 27.0267 138.224 25.08C138.224 22.76 139.064 20.9867 140.744 19.76C142.424 18.5333 144.838 17.92 147.984 17.92H150.424V16.88C150.424 15.5733 150.131 14.6667 149.544 14.16C148.958 13.6533 147.984 13.4 146.624 13.4C145.131 13.4 143.264 13.7733 141.024 14.52L139.744 10.72C142.384 9.68 144.998 9.16 147.584 9.16C150.464 9.16 152.584 9.78667 153.944 11.04C155.304 12.2667 155.984 14.1067 155.984 16.56V25.12ZM146.664 27.56C148.264 27.56 149.518 26.7733 150.424 25.2V21.16H148.544C145.478 21.16 143.944 22.3067 143.944 24.6C143.944 25.5333 144.171 26.2667 144.624 26.8C145.104 27.3067 145.784 27.56 146.664 27.56ZM173.499 9.16C175.366 9.16 176.819 9.73333 177.859 10.88C178.899 12 179.419 13.56 179.419 15.56V31H173.739V16.52C173.739 15.3733 173.539 14.5733 173.139 14.12C172.766 13.64 172.193 13.4 171.419 13.4C170.619 13.4 169.886 13.6533 169.219 14.16C168.579 14.64 167.953 15.3733 167.339 16.36V31H161.659V9.8H166.579L167.019 12.48C167.899 11.3867 168.859 10.56 169.899 10C170.966 9.44 172.166 9.16 173.499 9.16ZM197.503 30C196.73 30.5333 195.85 30.9333 194.863 31.2C193.903 31.4933 192.943 31.64 191.983 31.64C189.797 31.6133 188.143 30.9867 187.023 29.76C185.903 28.5333 185.343 26.7333 185.343 24.36V13.8H182.183V9.8H185.343V5.16L191.023 4.48V9.8H195.903L195.343 13.8H191.023V24.24C191.023 25.2533 191.197 25.9867 191.543 26.44C191.89 26.8933 192.423 27.12 193.143 27.12C193.863 27.12 194.663 26.88 195.543 26.4L197.503 30ZM215.789 25.12C215.789 25.9467 215.909 26.56 216.149 26.96C216.389 27.3333 216.789 27.6133 217.349 27.8L216.149 31.56C214.896 31.4533 213.869 31.16 213.069 30.68C212.296 30.2 211.696 29.4533 211.269 28.44C209.882 30.5733 207.762 31.64 204.909 31.64C202.802 31.64 201.122 31.04 199.869 29.84C198.642 28.6133 198.029 27.0267 198.029 25.08C198.029 22.76 198.869 20.9867 200.549 19.76C202.229 18.5333 204.642 17.92 207.789 17.92H210.229V16.88C210.229 15.5733 209.936 14.6667 209.349 14.16C208.762 13.6533 207.789 13.4 206.429 13.4C204.936 13.4 203.069 13.7733 200.829 14.52L199.549 10.72C202.189 9.68 204.802 9.16 207.389 9.16C210.269 9.16 212.389 9.78667 213.749 11.04C215.109 12.2667 215.789 14.1067 215.789 16.56V25.12ZM206.469 27.56C208.069 27.56 209.322 26.7733 210.229 25.2V21.16H208.349C205.282 21.16 203.749 22.3067 203.749 24.6C203.749 25.5333 203.976 26.2667 204.429 26.8C204.909 27.3067 205.589 27.56 206.469 27.56ZM233.304 9.16C235.171 9.16 236.624 9.73333 237.664 10.88C238.704 12 239.224 13.56 239.224 15.56V31H233.544V16.52C233.544 15.3733 233.344 14.5733 232.944 14.12C232.571 13.64 231.997 13.4 231.224 13.4C230.424 13.4 229.691 13.6533 229.024 14.16C228.384 14.64 227.757 15.3733 227.144 16.36V31H221.464V9.8H226.384L226.824 12.48C227.704 11.3867 228.664 10.56 229.704 10C230.771 9.44 231.971 9.16 233.304 9.16ZM256.468 9.16C258.335 9.16 259.788 9.73333 260.828 10.88C261.868 12 262.388 13.56 262.388 15.56V31H256.708V16.52C256.708 15.3733 256.508 14.5733 256.108 14.12C255.735 13.64 255.161 13.4 254.388 13.4C253.588 13.4 252.855 13.6533 252.188 14.16C251.548 14.64 250.921 15.3733 250.308 16.36V31H244.628V9.8H249.548L249.988 12.48C250.868 11.3867 251.828 10.56 252.868 10C253.935 9.44 255.135 9.16 256.468 9.16ZM283.992 25.12C283.992 25.9467 284.112 26.56 284.352 26.96C284.592 27.3333 284.992 27.6133 285.552 27.8L284.352 31.56C283.099 31.4533 282.072 31.16 281.272 30.68C280.499 30.2 279.899 29.4533 279.472 28.44C278.086 30.5733 275.966 31.64 273.112 31.64C271.006 31.64 269.326 31.04 268.072 29.84C266.846 28.6133 266.232 27.0267 266.232 25.08C266.232 22.76 267.072 20.9867 268.752 19.76C270.432 18.5333 272.846 17.92 275.992 17.92H278.432V16.88C278.432 15.5733 278.139 14.6667 277.552 14.16C276.966 13.6533 275.992 13.4 274.632 13.4C273.139 13.4 271.272 13.7733 269.032 14.52L267.752 10.72C270.392 9.68 273.006 9.16 275.592 9.16C278.472 9.16 280.592 9.78667 281.952 11.04C283.312 12.2667 283.992 14.1067 283.992 16.56V25.12ZM274.672 27.56C276.272 27.56 277.526 26.7733 278.432 25.2V21.16H276.552C273.486 21.16 271.952 22.3067 271.952 24.6C271.952 25.5333 272.179 26.2667 272.632 26.8C273.112 27.3067 273.792 27.56 274.672 27.56Z" fill="#141414"/>
<path d="M291.627 24.8C292.587 24.8 293.401 25.1333 294.067 25.8C294.734 26.4667 295.067 27.2667 295.067 28.2C295.067 29.1333 294.734 29.9467 294.067 30.64C293.401 31.3067 292.587 31.64 291.627 31.64C290.694 31.64 289.894 31.3067 289.227 30.64C288.561 29.9467 288.227 29.1333 288.227 28.2C288.227 27.2667 288.561 26.4667 289.227 25.8C289.894 25.1333 290.694 24.8 291.627 24.8Z" fill="url(#paint0_linear_9_28)"/>
<defs>
<linearGradient id="paint0_linear_9_28" x1="-2.2373" y1="20.0768" x2="296.739" y2="16.8551" gradientUnits="userSpaceOnUse">
<stop stop-color="#66C9CF"/>
<stop offset="1" stop-color="#61B3C5"/>
</linearGradient>
</defs>
</svg>
